<?xml version="1.0" standalone="no"?><!DOCTYPE svg PUBLIC "-//W3C//DTD SVG 1.1//EN" "http://www.w3.org/Graphics/SVG/1.1/DTD/svg11.dtd"><svg t="1616997264235" class="icon" viewBox="0 0 1024 1024" version="1.1" xmlns="http://www.w3.org/2000/svg" p-id="21589" xmlns:xlink="http://www.w3.org/1999/xlink" width="48" height="48"><defs><style type="text/css"></style></defs><path d="M75.748631 449.545438v-7.26113C75.748631 203.353433 269.440302 9.665246 508.367693 9.665246h7.264614c238.927392 0 432.619062 193.688186 432.619062 432.619062v7.26113c0 238.930876-193.688186 432.622546-432.619062 432.622546h-7.264614C269.440302 882.167984 75.748631 688.476313 75.748631 449.545438" fill="#E4EBF7" p-id="21590"></path><path d="M220.054866 463.123471a28.678674 28.678674 0 1 1-57.07164-5.748975 28.678674 28.678674 0 0 1 57.07164 5.748975" fill="#FFFFFF" p-id="21591"></path><path d="M220.469489 561.936152a19.637104 19.637104 0 1 1-39.079091-3.937176 19.637104 19.637104 0 0 1 39.079091 3.937176m61.385114-55.813834a19.779957 19.779957 0 1 1-39.361314-3.965051 19.779957 19.779957 0 0 1 39.361314 3.965051M425.425666 102.840448l103.342177-0.045295a15.895044 15.895044 0 1 0-0.013937-31.797057l-103.342177 0.045295a15.898528 15.898528 0 0 0 0.017421 31.797057m39.525073 63.545335l103.338693-0.045295a15.898528 15.898528 0 1 0-0.013937-31.797057l-103.342177 0.045295a15.898528 15.898528 0 1 0 0.017421 31.797057" fill="#FFFFFF" p-id="21592"></path><path d="M473.180483 102.795153V102.7847l54.695398-0.024389a15.898528 15.898528 0 1 0 0.013937 31.797057l-54.695398 0.024389v-0.006968a15.895044 15.895044 0 0 0-0.013937-31.78312m248.56128 377.066545c-1.916325 19.006459-18.877543 32.86323-37.884002 30.946905-19.009943-1.916325-32.86323-18.877543-30.946905-37.884001 1.916325-19.006459 18.877543-32.86323 37.884002-30.946906 19.006459 1.916325 32.86323 18.877543 30.946905 37.884002" fill="#FFFFFF" p-id="21593"></path><path d="M722.246976 599.029234a23.685776 23.685776 0 1 1-47.134625-4.749001 23.685776 23.685776 0 0 1 47.131141 4.749001m64.705582-57.981023a23.859987 23.859987 0 1 1-47.479563-4.790813 23.859987 23.859987 0 0 1 47.476079 4.790813" fill="#FFFFFF" p-id="21594"></path><path d="M705.27879 102.15754C705.27879 45.740934 751.012755 0 807.436329 0c56.42009 0 102.15754 45.73745 102.15754 102.15754 0 56.423574-45.73745 102.164508-102.15754 102.164508-56.42009 0-102.15754-45.740934-102.157539-102.161024" fill="#1890ff" p-id="21595"></path><path d="M847.33073 145.313177l-75.13039-0.435528a6.076492 6.076492 0 0 1-6.04165-6.111335l0.247381-42.612098a6.076492 6.076492 0 0 1 6.111334-6.04165l75.126905 0.435529c3.358795 0.020905 6.062555 2.756024 6.045135 6.114818l-0.247381 42.608614a6.076492 6.076492 0 0 1-6.111334 6.04165" fill="#FFFFFF" p-id="21596"></path><path d="M825.226793 101.711559c-0.052263 8.978853-7.139181 16.215593-15.828844 16.166813-8.689662-0.048779-15.692959-7.36914-15.640695-16.351478l0.139369-24.128272c0.055748-8.978853 7.142666-16.215593 15.828844-16.166814 8.689662 0.052263 15.692959 7.372625 15.644179 16.351478l-0.139369 24.128273z m-15.783549-49.037013a23.96103 23.96103 0 0 0-24.096915 23.821661l-0.149821 25.671785a23.96103 23.96103 0 0 0 47.92206 0.278738l0.146337-25.671785a23.964514 23.964514 0 0 0-23.821661-24.100399z m-149.856609 185.531611h-13.693013a16.480394 16.480394 0 0 1-16.435099-16.4351 16.480394 16.480394 0 0 1 16.435099-16.435099h13.693013a16.480394 16.480394 0 0 1 16.435099 16.435099 16.480394 16.480394 0 0 1-16.435099 16.4351" fill="#FFFFFF" p-id="21597"></path><path d="M661.844414 867.008112a23.034226 23.034226 0 0 1-23.030741-23.034226v-230.335287a23.034226 23.034226 0 0 1 46.064967 0v230.335287a23.034226 23.034226 0 0 1-23.030741 23.030742" fill="#5BA02E" p-id="21598"></path><path d="M689.484788 864.701553a23.034226 23.034226 0 0 1-23.030741-23.030741v-115.167644a23.034226 23.034226 0 1 1 46.064967 0v115.16416a23.034226 23.034226 0 0 1-23.030742 23.034225" fill="#92C110" p-id="21599"></path><path d="M723.793973 1023.979513h-95.384202a11.045 11.045 0 0 1-11.045-11.045v-159.880731a11.045 11.045 0 0 1 11.045-11.045h95.384202a11.045 11.045 0 0 1 11.045 11.045v159.877246a11.045 11.045 0 0 1-11.045 11.045001" fill="#F2D7AD" p-id="21600"></path><path d="M361.357698 514.526274s22.218916-3.229879 61.203934-4.459811c40.8665-1.292648 61.217871 3.783871 61.21787 3.783871s12.881188-13.431696 3.372732-29.35113c4.452842-42.079011 20.842647-114.376724 1.167216-168.194096-3.888397-4.66538-13.041462-5.268151-26.257135-2.160221-4.658412 1.097532-24.901771-0.51915-27.814586-0.348423l-53.347001-1.209027s-12.1495-0.592319-27.995765-1.769987c-5.268151-0.393718-14.727828-5.863954-19.016912-1.177669-1.414596 1.543513-8.449251 19.752084-6.863927 56.01592l30.086301 124.184823s-10.943957 12.57806 4.247273 24.68575" fill="#FFFFFF" p-id="21601"></path><path d="M339.741553 255.480955l-3.135805-22.288601 41.74801-22.717161s25.441827-0.411139 28.006217 4.198493c2.567875 4.613117-19.56742 3.459838-19.567419 3.459838s-6.397041 4.836107-9.111254 8.710568c-5.762912 8.233229-3.435448 22.546434-28.981801 20.856583-5.95106 0.989521-8.954464 7.780279-8.954464 7.78028" fill="#FFC6A0" p-id="21602"></path><path d="M258.461502 270.62689s49.535257 32.77264 87.011604 50.326177c3.696765 1.731661-7.295972 56.385248-41.434429 41.152206-25.908713-11.560666-70.248987-29.406877-74.848167-50.507356-2.473801-11.351612 8.86039-26.629948 29.270992-40.974511m311.566559 8.508482s-23.319932 10.449197-48.235641 23.957546c-13.56758 7.351719-35.31961 16.389804-42.96052 27.832007-21.68583 32.452092 12.320227 39.093028 45.110289 26.142156 23.379164-9.236686 101.039103-42.253222 46.085872-77.931709" fill="#FFB594" p-id="21603"></path><path d="M341.128275 231.213313l10.661735 13.522285s-9.696604 9.302886-21.985473 20.023854c-24.748465 21.584787-44.60856 49.810511-55.730213 57.280694-13.818445 9.275013-33.985151 11.546729-42.427434-0.411139-12.379459-17.532631 1.616681-50.967275 109.481385-90.415694" fill="#FFC6A0" p-id="21604"></path><path d="M301.087537 296.563477s-8.153091 29.312803-31.051433 50.336629c2.271716 1.909356 64.757846 36.619227 77.154726 35.037388 18.250382-2.330948 22.358286-66.08882 3.98944-71.534667-2.445927-0.724719-20.560424-4.480716-30.845863-7.55032-3.031278-0.905899-5.61309-5.958028-12.351585-3.261237l-6.89877-3.027793z m221.903457 2.473801s18.52912 6.815148 25.521964 47.852376c-1.902388 0.954678-61.148186 43.030205-76.057194 27.194392-22.76594-24.180536-2.668918-60.601163 14.895071-64.841467 16.187719-3.905819 17.525662-4.773391 35.643644-10.205301" fill="#FFFFFF" p-id="21605"></path><path d="M484.044304 239.153866l-23.626545-21.522071s-18.658036-15.030956-32.135026-3.111415c-13.473506 11.923025 15.550106 7.257645 19.696336 14.511807 4.14623 7.254161 2.954625 3.982472-7.257646 1.553965-19.522125-4.637506-7.254161 3.111415 10.365576 18.658036 7.285519 6.428399 24.361716 3.327437 24.361716 3.327437l8.595589-13.417759z" fill="#FFC6A0" p-id="21606"></path><path d="M442.575032 318.162201l-1.034815-38.106992-55.461928-0.094074-1.84664 36.410173c-0.09059 1.404144 0.592319 2.745571 1.794377 3.480743 7.139181 4.358768 32.70644 17.745169 55.047304 1.477312 0.999973-0.731688 1.543513-1.930262 1.501702-3.170646" fill="#FFB594" p-id="21607"></path><path d="M450.557397 258.669023c2.846614-3.996409 3.421511-31.769183 3.53649-41.559862a3.644502 3.644502 0 0 0-3.362279-3.675859l-16.097129-1.271743c-26.863391-3.637533-59.479241 2.174158-63.597598 22.110905-19.100533 20.253812-1.46686 46.145104-1.46686 46.145104s6.839538 12.424754 14.999598 23.661387c2.634076 3.62708 1.386722-12.999651 10.59205-20.657983 19.246871-16.006539 55.395727-24.748465 55.395728-24.748465" fill="#5C2552" p-id="21608"></path><path d="M383.8449 289.908603s9.35515 21.609177 40.424003 22.724129c27.246656 0.975584 31.26397-24.417464 25.901744-60.991396l-3.167162-19.104017c-21.316502-10.093806-53.928868 1.881483-53.928868 1.881483s-2.006915 7.12176-0.662003 19.177186c-7.930101 7.198413-6.35523 19.574388-6.35523 19.574388s-3.153226-6.696685-6.89877-8.086891c-2.996435-1.114953-6.609579 0.310096-8.090375 6.898769-3.623596 16.13894 12.776661 17.926349 12.776661 17.926349" fill="#FFC6A0" p-id="21609"></path><path d="M443.494868 258.153357c-0.076653 2.484254-1.574871 4.456327-3.344858 4.400579-1.776956-0.055748-3.149741-2.114926-3.073088-4.59918 0.073169-2.484254 1.574871-4.452842 3.344858-4.400579 1.776956 0.055748 3.149741 2.114926 3.073088 4.59918m-27.713542 0.895446c-0.076653 2.484254-1.574871 4.452842-3.348343 4.400579-1.773472-0.055748-3.149741-2.114926-3.073088-4.59918 0.076653-2.484254 1.574871-4.456327 3.348342-4.400579 1.776956 0.055748 3.149741 2.111442 3.073089 4.59918" fill="#552950" p-id="21610"></path><path d="M423.390878 285.368655s-12.515344 0.808341-5.017287-9.720994c5.539921-5.212404 17.06226-1.602744 17.06226-1.602744s4.027767 13.609391-12.044973 11.323738" fill="#DB836E" p-id="21611"></path><path d="M467.257297 229.641926l-0.49476 18.536089s20.880973 15.581464 41.619093 32.061858c15.616306 12.410817 30.967811 25.974913 38.274235 30.180375 16.738227 9.637372 31.009622 11.689582 38.5913 6.299483 14.184289-10.083353 15.236525-34.417196-28.347672-53.179759-14.881134-6.404009-56.249363-22.159685-89.642196-33.90153" fill="#FFC6A0" p-id="21612"></path><path d="M429.46737 1011.282989s15.072767 7.167055 25.811154 3.588754c9.902174-3.303047 15.902013 2.344885 24.849508 4.132293 8.954464 1.790893 24.128273 3.860524 41.016322-4.421484-0.36236-19.340945-24.177052-13.971751-41.977968-23.563828-8.996274-4.843076-13.281874-16.574468-12.630324-30.880705h-32.999115s-4.884886 36.918871-4.073061 51.148454" fill="#CBD1D1" p-id="21613"></path><path d="M429.383748 1010.680218s8.525904 4.463295 23.724103 2.292621c10.734904-1.53306 13.031009 1.68985 26.058535 3.620112 13.027525 1.930262 37.636622-0.243896 41.497145-3.135804 1.445954 3.860524-1.209027 7.23674-1.209027 7.23674s-5.306478 2.11841-16.888049 2.895392c-7.125244 0.477339-20.358339 1.020879-26.699633-1.766503-6.271609-4.825655-18.417625-6.679263-20.10399-0.846667-13.752245 3.33789-25.818123-1.003457-25.818123-1.003457l-0.557476-9.292434z" fill="#2B0849" p-id="21614"></path><path d="M454.916165 962.308692h10.856851s-0.358875 23.522017 15.922918 30.034038c-16.281793 2.174158-30.034038-8.083407-26.779769-30.034038" fill="#A4AABA" p-id="21615"></path><path d="M276.614325 949.521579s-7.39353 26.027177-15.741738 43.190479c-6.309935 12.975262-14.825386 26.298946 19.180671 26.298947 23.337353 0 31.427729-1.682882 26.058534-23.163142-5.369194-21.476776 0.933773-46.326284 0.933773-46.326284H276.614325z" fill="#CBD1D1" p-id="21616"></path><path d="M255.325698 1010.565238s7.355203 4.10442 23.281605 4.10442c21.351344 0 28.953927-5.790785 28.953928-5.790786s2.107957 3.909303-2.174158 7.595615c-3.484227 3.003404-12.626839 5.585216-25.936587 5.431911-14.553617-0.170727-20.473319-1.986009-23.643965-4.100936-2.895393-1.930262-2.411085-5.550374-0.480823-7.240224" fill="#2B0849" p-id="21617"></path><path d="M279.690898 956.204327s0.118464 5.327383-1.097532 10.27847c-1.226448 4.985929-3.787355 10.895178-3.968534 14.529227-0.202085 4.041703 15.922918 5.54689 18.097075 0.121948 2.170674-5.43191 4.539948-22.560371 6.714106-25.455764 2.167189-2.895393-17.212082-7.438825-19.745115 0.522634" fill="#A4AABA" p-id="21618"></path><path d="M427.254886 965.18318l46.361126 0.320549s4.498137-188.942669 6.42143-223.185654c1.923293-34.242984 13.086757-150.274716 3.473775-218.767653l-43.483155-2.229905-79.179061 2.70376s-1.50867 13.741792-4.146231 34.567017c-0.216022 1.717724-2.358822 2.919782-2.592265 4.731581-0.261317 2.02782 1.463375 4.693254 1.107984 6.815148-8.187934 48.789633-22.100453 114.721663-30.302323 161.755245-0.40417 2.310043-4.275147 3.498164-5.052129 9.327276-0.139369 1.045268 0.731688 5.282088 0.390233 6.219345-23.818177 64.956446-37.943234 165.793464-49.476025 214.457665l50.618852-0.04878s7.613036-29.699552 13.964782-58.806785c9.741899-44.657339 80.091929-294.601857 80.091929-294.601857l10.452682-1.801346 3.613143 160.622871s-0.776983 4.278631 1.163732 6.996329c1.944199 2.724666-1.93723 3.891882-1.358849 7.780279l1.358849 6.215861s-1.553965 24.877382-3.107931 41.20447c-1.553965 16.323604-0.320549 135.724584-0.320548 135.724584" fill="#7BB2F9" p-id="21619"></path><path d="M484.716759 513.655217s-59.075071-10.755809-124.386908 0.693361c0.547024 8.714052-0.006968 14.38289-0.006969 14.38289s50.894106-9.762804 123.606442-1.080111c0.874541-8.16006 0.787435-13.99614 0.787435-13.99614" fill="#192064" p-id="21620"></path><path d="M450.341375 523.864002l0.013936-17.020449a2.811771 2.811771 0 0 0-2.696791-2.822224c-8.459703-0.320549-17.560505-0.376297-27.159551-0.048779a2.836161 2.836161 0 0 0-2.731634 2.822224l-0.010453 17.003028c0 1.588808 1.292648 2.857066 2.881456 2.815256a490.439812 490.439812 0 0 1 26.786738 0.059232 2.822224 2.822224 0 0 0 2.916299-2.808288" fill="#FFFFFF" p-id="21621"></path><path d="M446.477367 520.634124l0.006968-10.661735a2.229905 2.229905 0 0 0-2.146284-2.240358 327.987721 327.987721 0 0 0-20.326981-0.031358 2.254295 2.254295 0 0 0-2.181126 2.240358l-0.003484 10.647798c0 1.254322 1.01391 2.257779 2.268231 2.229905 6.201924-0.139369 12.919514-0.142853 20.076117 0.041811a2.243842 2.243842 0 0 0 2.306559-2.229905" fill="#192064" p-id="21622"></path></svg>