<?xml version="1.0" standalone="no"?><!DOCTYPE svg PUBLIC "-//W3C//DTD SVG 1.1//EN" "http://www.w3.org/Graphics/SVG/1.1/DTD/svg11.dtd"><svg class="icon" width="200px" height="200.00px" viewBox="0 0 1024 1024" version="1.1" xmlns="http://www.w3.org/2000/svg"><path d="M510.72 41.856l435.2 361.024a32 32 0 0 1-36.16 52.48l-4.736-3.2-41.024-34.048V832c0 48.832-32.64 90.752-76.864 95.552l-8.448 0.448H245.312c-45.696 0-80.96-39.04-84.928-86.912L160 832V407.808l-55.04 44.608a32 32 0 0 1-40.96-0.64l-4.032-4.16a32 32 0 0 1 0.64-40.96l4.096-4.032L510.784 41.856z m-0.512 82.688L223.232 356.672a31.808 31.808 0 0 1 0.256 1.152l0.512 5.76V832c0 16.768 8.64 28.992 17.92 31.552l3.392 0.448h533.376c9.216 0 18.88-10.432 20.928-25.92L800 832V364.992L510.208 124.544z" /></svg>