<?xml version="1.0" standalone="no"?><!DOCTYPE svg PUBLIC "-//W3C//DTD SVG 1.1//EN" "http://www.w3.org/Graphics/SVG/1.1/DTD/svg11.dtd"><svg class="icon" width="48px" height="42.26px" viewBox="0 0 1163 1024" version="1.1" xmlns="http://www.w3.org/2000/svg"><path d="M808.012388 462.891298h352.850109l0.004748 0.011869C1136.531281 203.233307 917.996606 0 651.96265 0 369.642209 0 140.776856 228.867727 140.776856 511.188168c0 282.322815 228.865353 511.188168 511.185794 511.188168 229.078993 0 422.95487-150.687375 487.934647-358.345403h-192.0362l-139.848709-201.139635z" fill="#E1F9FF" /><path d="M1163.150818 512.811832c0 282.320441-228.865353 511.188168-511.190542 511.188168-282.320441 0-511.185794-228.867727-511.185794-511.188168S369.639835 1.623664 651.960276 1.623664C934.285465 1.623664 1163.150818 230.49139 1163.150818 512.811832" fill="#E3F7FC" /><path d="M651.96265 1022.400074c158.611044 0 300.342158-72.248282 394.103983-185.617506H257.856294c93.761825 113.371598 235.492939 185.617507 394.106356 185.617506" fill="#92DDCE" /><path d="M458.343141 127.718707l79.927451 59.140285s50.357309-51.82193 212.849478 4.391488c0 0 44.209226 15.225407 38.939441 28.39987 0 0-7.028754 36.596523-64.414817 0 0 0-8.780602-6.148083-14.344736 1.464621 0 0-5.856108 7.318355 11.420242 12.58814 0 0 92.517966 25.178655 80.219426 61.191228 0 0-4.683462 38.353118-60.018582-9.369298 0 0-31.034763-26.93525-43.330929-20.787167 0 0-7.904678 3.51319 9.077324 13.174463 0 0 77.584533 51.235607 69.97183 69.387881 0 0-10.831545 45.965821-69.97183-20.200844 0 0-45.965821-52.113904-54.748797-50.357309 0 0-4.099513-1.464621-3.807538 9.07495 0 0 24.297983 69.387881-36.304548 100.716992 0 0-15.664556 9.806074-27.229598-8.638175 0 0-8.638175-12.735315 8.782975-26.93525 0 0 56.652566-39.157828 3.074042-77.366146 0 0-42.599805-28.544671-68.727971 11.63863 0 0-31.181937 40.1833 22.396588 74.436905 0 0 34.913515 17.786712 16.248504 32.499383-18.66501 14.710297-46.770532 9.661273-71.583624-29.20458 0 0-47.209681-70.266178-15.590969-117.257472 0 0 9.442886-9.003737-19.980082-21.739051-29.425342-12.735315-46.991293-30.082878-46.991293-30.082878l44.138013-66.166666z" fill="#F9C193" /><path d="M813.994307 762.008586c-4.308406 0-8.52186 0.332329-12.683092 0.807085 0-0.042728 0.007121-0.080708 0.007122-0.125811 0-37.173351-34.334313-67.306078-76.687246-67.306078-29.266299 0-54.684705 14.392211-67.612296 35.549687a66.126311 66.126311 0 0 0-5.894088-0.263489c-26.712115 0-49.084965 16.072845-55.42295 37.781038-29.095387 11.493829-47.337865 37.313403-51.719857 68.329176h355.375808c-5.951059-42.134545-35.746711-74.771607-85.363401-74.771608" fill="#3B8BFF" /><path d="M473.091418 110.822161l-58.793713-52.168501a512.351319 512.351319 0 0 0-112.873105 80.677565l103.726942 72.666067 67.939876-101.175131z" fill="#92DDCE" /><path d="M651.96265 672.533803l156.049738-209.642505 161.962817 215.498613z" fill="#41C5F9" /><path d="M706.419472 614.269442l101.592916-138.419695 118.382642 155.404071z" fill="#FFFFFF" /><path d="M706.419472 614.559043h206.993371v222.223525h-206.993371z" fill="#FFFFFF" /><path d="M842.121192 583.676202c0 19.64538-15.925671 35.573425-35.573424 35.573425-19.643006 0-35.568677-15.928045-35.568678-35.573425 0-19.643006 15.925671-35.571051 35.568678-35.571051 19.647754-0.002374 35.573425 15.925671 35.573424 35.571051" fill="#3B8BFF" /><path d="M766.14608 664.02856h94.85851v172.751634h-94.85851z" fill="#A4E3FF" /><path d="M795.049191 740.528277a10.534823 10.534823 0 1 1-21.069646 0 10.534823 10.534823 0 0 1 21.069646 0" fill="#3B8BFF" /><path d="M973.564356 262.352228c0 0.306217 0.042728 0.600566 0.045102 0.906783-6.252529-1.103806-12.652232-1.78508-19.222848-1.785081-56.165942 0-91.770226 42.094191-98.504631 96.437072h283.868144c-21.017423-66.933395-55.427697-127.929974-100.092689-179.861097-37.940081 9.293338-66.093078 43.501841-66.093078 84.302323M397.963744 321.967268c-4.878112 0-9.644657 0.42728-14.35423 1.042088l0.007121-0.163791c0-47.943178-38.86348-86.809031-86.806658-86.809031-47.943178 0-86.809031 38.865854-86.809031 86.809031 0 0.306217 0.042728 0.600566 0.047475 0.906783-6.254903-1.103806-12.654606-1.78508-19.222847-1.78508-4.878112 0-9.59006 0.337076-14.15246 0.951884a506.65188 506.65188 0 0 0-27.466976 95.485188h345.389328c-6.734406-54.342881-40.463406-96.437072-96.631722-96.437072" fill="#FFFFFF" /><path d="M261.388474 626.173935l-26.97323 9.343187 15.806982 45.647735-22.821493 7.902304-15.809356-45.645361L129.631972 671.805054l-7.904678-22.826242 44.114275-147.729649 19.709472-6.826983 42.03722 121.383096 26.97323-9.340813 6.826983 19.709472z m-87.12237-87.176967l-29.672215 105.550002 60.170504-20.837016-29.458574-85.071426-1.039715 0.35844z" fill="#FC7E7F" /><path d="M444.658315 519.902304c18.515462 57.6543 8.93015 93.346414-28.755937 107.119069-19.282192 6.677435-36.076666 4.937457-50.392915-5.219936-16.070472-13.14123-29.21645-33.418035-39.421318-60.837535-10.456488-30.199193-12.576272-55.024155-6.349854-74.453521 5.381353-17.68464 17.072205-29.66272 35.070184-35.896259 38.137104-12.478947 68.07993 10.617905 89.84984 69.288182z m-22.173452 7.676796c-16.447902-45.398489-36.672484-64.30325-60.666624-56.721406-24.430915 8.460142-28.620631 35.822671-12.597635 82.092336 15.804608 45.640614 36.019695 64.545375 60.671371 56.721406 23.550243-8.86131 27.751829-36.226214 12.592888-82.092336zM658.609226 492.231184l-25.064713 8.680903 14.688933 42.41465-21.207325 7.344467-14.688933-42.414651-76.15552 26.372665-7.344466-21.207325 40.990384-137.26604 18.316065-6.342732 39.058129 112.785275 25.064714-8.67853 6.342732 18.311318z m-80.950549-81.002773l-27.571422 98.074978 55.911948-19.3629-27.374399-79.04678-0.966127 0.334702z" fill="#FC7E7F" /><path d="M1060.845769 717.096722h59.085688a507.791293 507.791293 0 0 0 34.51472-111.607882h-241.033334v231.291354h132.656163a512.090204 512.090204 0 0 0 42.398035-59.531958h-27.621272v-60.151514z m0-67.562446h60.151514v60.151514h-60.151514v-60.151514z m-7.410932 127.71396h-60.151514v-60.151514h60.151514v60.151514z m0-67.562446h-60.151514v-60.151514h60.151514v60.151514z" fill="#3B8BFF" /><path d="M1060.845769 649.534276h60.151514v60.151514h-60.151514z" fill="#3B8BFF" /><path d="M1060.845769 649.534276h60.151514v60.151514h-60.151514z" fill="#A4E3FF" /><path d="M993.283323 649.534276h60.151514v60.151514h-60.151514z" fill="#3B8BFF" /><path d="M993.283323 649.534276h60.151514v60.151514h-60.151514z" fill="#A4E3FF" /><path d="M993.283323 717.096722h60.151514v60.151514h-60.151514z" fill="#3B8BFF" /><path d="M993.283323 717.096722h60.151514v60.151514h-60.151514z" fill="#A4E3FF" /><path d="M1060.845769 717.096722v60.151514h27.621272a509.372229 509.372229 0 0 0 31.464416-60.151514h-59.085688z" fill="#3B8BFF" /><path d="M1060.845769 717.096722v60.151514h27.621272a509.372229 509.372229 0 0 0 31.464416-60.151514h-59.085688z" fill="#A4E3FF" /><path d="M1163.127081 512.811832c0.002374-0.5341 0.023738-1.063452 0.023737-1.597552 0-8.305846-0.218388-16.55947-0.61006-24.765618M1161.667208 550.41721c0.65991-8.728379 1.101433-17.518476 1.31982-26.360796M1150.282572 625.632714a511.062358 511.062358 0 0 0 5.286402-26.36317h-234.120896v-11.239835h235.955826a512.401168 512.401168 0 0 0 3.266317-26.365543" fill="#41C5F9" /><path d="M1160.864871 462.903167l-0.004748-0.011869H808.012388l139.848709 201.134888h192.038574c15.099597-48.261264 23.251147-99.598943 23.251147-152.840392 0-16.286485-0.795215-32.383068-2.285947-48.282627" fill="#41C5F9" /><path d="M835.681135 486.448662h326.859623a502.087106 502.087106 0 0 0-0.674153-11.242208H835.681135v11.242208z" fill="#E1F9FF" /><path d="M864.175956 524.056414h298.811072c0.092577-3.736325 0.130558-7.486893 0.142426-11.242208h-298.953498v11.242208z" fill="#E1F9FF" /><path d="M892.867801 561.659419h267.80242c0.365562-3.738699 0.712133-7.479772 0.996987-11.239835H892.867801v11.239835z" fill="#E1F9FF" /><path d="M921.450452 599.26717h234.118522c0.645667-3.736325 1.269971-7.479772 1.83493-11.242208h-235.953452v11.242208z" fill="#E1F9FF" /><path d="M948.16494 636.874922h199.402031c0.94239-3.731578 1.85392-7.477398 2.717975-11.242208h-202.117632v11.242208z" fill="#E1F9FF" /></svg>