<?xml version="1.0" standalone="no"?><!DOCTYPE svg PUBLIC "-//W3C//DTD SVG 1.1//EN" "http://www.w3.org/Graphics/SVG/1.1/DTD/svg11.dtd"><svg class="icon" width="48px" height="32.00px" viewBox="0 0 1536 1024" version="1.1" xmlns="http://www.w3.org/2000/svg"><path d="M1506.56 689.066667c-5.546667-10.24-11.52-19.626667-18.773333-29.44-39.253333-54.186667-91.733333-98.986667-115.626667-164.266667-32-87.04-5.973333-189.866667-33.28-279.04-19.2-62.72-65.706667-113.92-121.173333-133.546667-48.64-17.493333-100.266667-11.52-151.466667-5.12-34.133333 4.266667-68.693333 8.106667-102.826667 5.546667-69.12-5.973333-133.973333-40.106667-200.533333-63.146667C729.6 8.533333 693.76 0.426667 658.773333 0.426667l-2.56-0.426667c-33.706667 0-66.986667 7.68-96 27.306667-62.293333 42.24-90.88 127.146667-140.8 186.453333-46.506667 55.893333-106.666667 81.493333-165.973333 111.786667-49.92 25.173333-71.253333 85.333333-79.786667 144.64-6.4 46.506667-9.386667 95.573333-29.866666 136.106666-23.466667 46.933333-66.986667 76.373333-97.28 117.76-49.92 68.266667-61.013333 171.093333-25.6 250.453334 7.68 17.066667 17.493333 33.706667 32.853333 42.24 12.373333 7.253333 26.88 7.253333 40.106667 7.253333H1342.293333c13.653333 0 28.16 0 40.106667-7.68 19.626667-12.8 26.026667-40.106667 38.826667-61.866667 24.746667-42.24 73.813333-58.88 98.986666-101.12 11.093333-18.773333 15.786667-39.68 15.786667-61.866666v-0.426667c0-34.56-12.373333-70.4-29.44-101.973333z" fill="#E4EBF7" /><path d="M507.733333 277.333333h605.866667v537.6H507.733333V277.333333z" fill="#FFFFFF" /><path d="M507.733333 277.333333h605.866667v59.733334H507.733333V277.333333z" fill="#C5CFD6" /><path d="M1028.266667 307.2c0 4.693333 3.84 8.533333 8.533333 8.533333s8.533333-3.84 8.533333-8.533333-3.84-8.533333-8.533333-8.533333-8.533333 3.84-8.533333 8.533333z" fill="#ED5565" /><path d="M1053.866667 307.2c0 4.693333 3.84 8.533333 8.533333 8.533333s8.533333-3.84 8.533333-8.533333-3.84-8.533333-8.533333-8.533333-8.533333 3.84-8.533333 8.533333z" fill="#5CB85C" /><path d="M1079.466667 307.2c0 4.693333 3.84 8.533333 8.533333 8.533333s8.533333-3.84 8.533333-8.533333-3.84-8.533333-8.533333-8.533333-8.533333 3.84-8.533333 8.533333z" fill="#F0AD4E" /><path d="M477.013333 584.106667c-5.546667-6.826667-9.386667-14.933333-8.96-23.893334 1.706667-26.453333 38.826667-20.48 46.08-7.253333 7.253333 13.226667 6.4 46.933333-2.986666 49.493333-3.84 0.853333-11.52-1.28-19.626667-5.973333l5.12 35.413333h-29.866667l10.24-47.786666z" fill="#FECAC3" /><path d="M500.906667 555.093333c-3.84 2.133333-6.826667 6.4-10.24 11.946667-0.853333-0.426667-1.706667-0.426667-2.56-0.426667-4.266667 0-7.253333 3.413333-7.253334 7.253334 0 2.133333 0.853333 3.84 2.133334 5.12-1.706667 2.56-3.84 5.12-5.973334 7.68-8.106667-4.693333-14.506667-19.2-6.4-32.853334 6.826667-27.733333 45.226667-10.666667 52.48-15.36 1.706667 9.813333-3.413333 17.92-22.186666 16.64z" fill="#09192A" /><path d="M454.826667 733.44l44.373333 154.88 32.426667 113.92h23.466666l-34.56-268.8h-65.706666z" fill="#5C648C" /><path d="M442.88 733.44c-0.853333 79.36-4.693333 123.306667-5.546667 130.56-1.28 7.253333-17.493333 53.333333-49.066666 138.24h24.32c40.106667-81.493333 63.146667-127.573333 67.84-138.24s19.2-54.186667 40.96-130.56h-78.506667z" fill="#7780AA" /><path d="M385.28 1024l1.28-25.6h25.6c12.373333 8.533333 28.16 15.36 47.786667 20.906667v4.693333H414.293333l-15.786666-2.56v2.56h-13.226667z m143.36 0l1.28-25.6h25.6c12.373333 8.533333 28.16 15.36 47.786667 20.906667v4.693333h-46.506667l-15.786667-2.56v2.56h-12.373333z" fill="#191847" /><path d="M560.213333 705.706667l46.506667-8.533334c9.386667-7.253333 17.92-11.946667 25.6-14.506666 2.133333 0 5.546667 0.853333 0.426667 6.826666-5.12 5.973333-10.666667 12.373333-9.386667 15.786667 0.853333 2.986667 5.973333 2.133333 6.4 6.826667 0.426667 3.413333-7.253333 3.84-23.466667 1.706666l-37.546666 20.48-8.533334-28.586666z m-146.773333 14.933333h25.6c-28.16 86.613333-43.093333 132.266667-44.373333 136.533333-2.56 9.386667 2.986667 23.466667 5.546666 30.72-8.106667 5.12-7.253333-13.226667-17.493333-6.826666-9.386667 5.973333-16.213333 16.64-26.88 7.68-1.28-1.28-2.56-5.12 0.853333-8.533334 8.533333-8.106667 21.333333-22.186667 23.04-26.88 1.706667-6.4 13.226667-50.773333 33.706667-132.693333z" fill="#FECAC3" /><path d="M484.266667 608.853333l20.053333 1.706667c5.12 61.44 32 100.266667 93.013333 87.04l8.106667 78.933333c-57.173333 10.24-107.093333-20.906667-116.906667-104.96-2.56-20.906667-4.693333-43.946667-4.266666-62.72z" fill="#B7CDE6" /><path d="M474.026667 600.746667l30.72 9.386666c0 72.106667 16.64 117.76 25.173333 170.666667h-83.2c-1.28 18.773333-1.706667 37.546667-2.133333 56.32H382.72c14.08-101.546667 43.52-180.906667 89.173333-236.373333h2.133334z" fill="#E1E2F5" /><path d="M460.373333 678.4c-2.133333 44.8-0.853333 78.933333 3.84 102.4h-16.64c2.133333-35.84 6.4-70.4 12.8-102.4z" fill="#B7CDE6" /><path d="M1242.026667 624.64c-28.586667 2.133333-47.36 20.906667-55.893334 47.36-4.693333 14.08-5.12 28.586667-7.68 43.093333-3.84 21.76-12.373333 37.973333-28.586666 53.76-5.12 5.12-8.96 9.386667-11.52 14.933334-5.12 5.546667-9.813333 11.093333-13.226667 18.773333-4.266667 8.96-5.546667 20.48-0.426667 29.866667 1.28 2.56 4.693333 7.253333 8.106667 9.813333-8.533333 18.346667-14.933333 37.546667-17.493333 57.173333-0.853333-4.266667-1.706667-7.68-2.133334-8.96-2.56-20.053333-3.413333-39.68-2.986666-60.16 0-33.28-0.853333-66.133333 2.56-98.56 0.426667-5.12 0.853333-9.813333 2.133333-14.933333s-0.426667-2.986667 3.84-5.12 9.386667-1.706667 13.653333-4.266667c17.066667-9.813333 26.026667-34.56 32.853334-51.2 7.68-18.773333 12.373333-38.826667 16.213333-58.88 2.986667-14.506667 4.693333-29.013333 5.973333-43.946666 0.426667-4.693333 0.426667-9.386667 1.28-14.08 0.426667-1.28 1.706667-3.413333 1.706667-4.693334 0-2.56-1.706667-3.84-1.706667-5.973333-1.28 1.706667-2.56 2.56-3.84 3.84-30.72 30.293333-45.653333 71.68-57.173333 110.933333-13.226667 43.946667-21.76 88.32-22.186667 133.973334-0.426667 29.866667-1.28 60.16 0.853334 90.026666 0.853333 10.666667 1.706667 21.333333 3.413333 32 0 0.426667 1.706667 10.24 3.84 15.786667 0 4.266667-0.426667 8.533333 0 12.8v1.706667h5.12c0-26.026667 2.56-51.2 13.653333-76.373334 1.706667-3.84 3.413333-7.68 5.12-10.666666h0.426667s0.426667-0.426667 0.426667-0.853334c0.426667-0.426667 0.853333-1.28 1.28-2.133333 1.28-2.133333 2.986667-4.266667 2.986666-5.546667 9.813333-15.36 20.906667-30.293333 32-44.8 0 0 12.373333-16.64 10.24-7.253333-0.853333 4.693333-9.813333 12.8-13.653333 17.493333-8.106667 10.24-17.493333 23.466667-25.6 36.266667-0.853333 0.426667-2.56 3.84-3.84 5.973333-0.426667 1.28-1.28 2.133333-1.706667 3.413334 28.16 8.96 49.92-8.96 64.853334-30.72 4.693333-5.973333 8.96-11.52 14.933333-16.64 9.813333-8.106667 20.053333-8.96 31.573333-12.8 31.146667-10.24 44.373333-49.92 48.64-79.36 5.546667-33.28-17.92-84.48-58.026666-81.066667z" fill="#92C110" /><path d="M1024 930.133333c0 52.053333 41.813333 93.866667 93.866667 93.866667s93.866667-41.813333 93.866666-93.866667h-187.733333z" fill="#F2D7AD" /><path d="M1243.306667 886.613333c-11.52-19.626667-38.826667-38.826667-63.146667-37.12-2.133333 0-5.12 0.853333-7.253333 2.133334h-9.386667c-27.306667 3.413333-40.106667 35.84-44.8 59.306666-2.133333-12.8-6.826667-25.6-12.373333-37.12-7.253333-15.36-17.066667-28.16-28.16-40.96-5.973333-6.4-7.253333-5.973333-4.266667-13.653333 2.56-5.973333 3.413333-15.36 1.706667-21.76-2.56-10.24-12.8-18.346667-17.92-27.733333-5.546667-9.813333-8.96-20.48-10.666667-31.146667-2.133333-13.653333-1.706667-27.306667-2.986667-40.96-1.706667-18.346667-24.746667-28.586667-43.52-27.733333-43.946667 2.133333-32.853333 62.293333-22.613333 87.04 11.52 31.146667 40.96 78.506667 83.626667 69.546666-9.813333-15.36-20.48-32-29.866667-46.933333-2.133333-2.986667-3.84-6.826667-6.4-10.666667-1.28-2.986667-8.96-18.346667-0.853333-10.666666 4.266667 4.266667 7.68 14.506667 10.666666 20.053333 1.706667 3.84 5.12 8.96 6.4 11.093333 25.173333 42.666667 64 75.52 72.106667 125.866667 0.853333 5.12 0.853333 10.24 0.853333 14.933333h7.68c0-1.706667 0.426667-2.986667 0.426667-4.266666 2.56-24.32 14.08-62.72 42.24-68.693334 2.56-0.426667 11.52 0.426667 19.2 1.28 2.56 0.853333 5.546667 1.706667 5.973333 3.413334 2.133333 4.693333-11.946667-1.28-13.226666-1.706667-8.106667-1.706667-13.226667 0-12.373334 9.386667 0.853333 6.826667 6.4 10.666667 11.093334 14.933333 2.986667 2.56 6.826667 5.12 9.813333 7.68 13.226667 11.52 15.786667 26.026667 16.213333 42.666667 0 12.373333 0.853333 33.706667 18.773334 33.706666 14.08 0 22.186667-16.213333 26.453333-27.733333 4.693333-17.066667 5.973333-37.973333-3.413333-54.186667z" fill="#5BA02E" /><path d="M610.133333 637.013333c0 7.253333 89.6 13.226667 200.533334 13.226667s200.533333-5.973333 200.533333-13.226667-89.6-13.226667-200.533333-13.226666-200.533333 5.973333-200.533334 13.226666z" fill="#F2F2F2" /><path d="M663.04 493.226667l-2.986667 44.8c7.253333-5.12 17.493333-8.533333 29.44-8.533334 28.16 0 44.8 16.64 44.8 45.653334s-18.773333 50.773333-52.053333 50.773333c-22.186667 0-40.96-7.68-52.053333-19.626667l12.8-14.08c9.813333 10.24 22.186667 15.786667 38.826666 15.786667 15.36 0 31.573333-8.96 31.573334-32.426667 0-22.613333-15.36-29.44-27.733334-29.44-13.226667 0-21.76 5.546667-28.586666 11.093334l-14.933334-6.826667 4.693334-74.666667h61.013333c2.56 0 2.986667-0.426667 3.413333-2.56l3.413334-12.373333 12.8-0.853333v32.853333h-64.426667v0.426667z" fill="#ED5565" /><path d="M755.2 545.28c0-37.12 13.226667-68.693333 57.6-68.693333 43.946667 0 54.186667 29.866667 54.186667 65.706666 0 37.973333-11.52 70.826667-56.746667 70.826667-44.8 0-55.04-30.293333-55.04-67.84z m90.453333-1.28c0-31.573333-6.826667-49.92-32.853333-49.92-26.453333 0-35.413333 18.773333-35.413333 52.48 0 29.866667 7.68 49.92 34.133333 49.92 26.026667 0 34.133333-20.48 34.133333-52.48z" fill="#AFB9C5" /><path d="M887.04 545.28c0-37.12 13.226667-68.693333 57.6-68.693333 43.946667 0 54.186667 29.866667 54.186667 65.706666 0 37.973333-11.52 70.826667-56.746667 70.826667-44.8 0-55.04-30.293333-55.04-67.84z m90.453333-1.28c0-31.573333-6.826667-49.92-32.853333-49.92-26.453333 0-35.413333 18.773333-35.413333 52.48 0 29.866667 7.68 49.92 34.133333 49.92 26.026667 0 34.133333-20.48 34.133333-52.48z" fill="#ED5565" /><path d="M587.52 612.266667c2.133333 0.853333 4.266667 0 5.546667-1.706667s1.706667-4.266667 0.426666-5.973333c-1.28-1.706667-3.413333-2.986667-5.546666-2.56v2.56l-1.28-2.133334c-1.706667 0.853333-2.986667 2.56-2.986667 4.266667 0.426667 2.56 1.706667 4.693333 3.84 5.546667zM598.613333 588.8c0.426667-1.706667 2.133333-2.986667 3.84-3.413333l0.426667 2.56 0.853333-2.56c2.133333 0 4.266667 1.706667 4.693334 3.84 0.853333 2.133333 0 4.693333-2.133334 5.973333-1.706667 1.28-4.266667 1.28-5.973333 0-1.706667-2.133333-2.56-4.266667-1.706667-6.4zM605.44 622.506667c2.56 0.853333 5.12 0 6.4-2.56s0.426667-5.12-1.706667-6.826667l-0.426666 2.133333-0.426667-2.56c-1.706667-0.426667-3.84-0.426667-5.12 0.853334-2.133333 1.706667-2.56 5.12-0.426667 7.253333 0.426667 0.853333 0.853333 1.28 1.706667 1.706667zM959.146667 441.6c2.986667 1.28 6.826667 0 8.96-2.56s2.56-6.4 0.426666-8.96c-1.706667-2.986667-5.12-4.266667-8.533333-3.413333v4.266666l-1.706667-3.413333c-2.56 1.28-4.266667 3.84-4.266666 6.4-0.426667 2.986667 1.706667 6.4 5.12 7.68zM992 464.213333c0.853333-2.56 2.986667-4.266667 5.546667-5.12l0.853333 3.84 1.28-4.266666c3.413333 0 6.4 2.133333 7.253333 5.546666s-0.426667 6.826667-2.986666 8.96c-2.986667 2.133333-6.4 1.706667-9.386667-0.426666-2.986667-1.706667-3.84-5.12-2.56-8.533334zM1000.96 525.226667c0.426667 3.84 3.84 6.4 7.253333 6.4 3.84 0 6.826667-2.56 7.68-5.973334s-0.853333-7.253333-4.266666-8.96-7.253333-0.853333-9.813334 2.133334l3.413334 5.12-4.693334-2.986667c0 2.133333 0 3.413333 0.426667 4.266667z" fill="#89C5CC" /><path d="M341.333333 256c0-56.746667 45.653333-102.4 102.4-102.4s102.4 45.653333 102.4 102.4-45.653333 102.4-102.4 102.4-102.4-45.653333-102.4-102.4" fill="#ED5565" /><path d="M450.986667 217.173333l-2.56 52.48c0 2.986667-2.56 5.12-5.546667 5.12-2.56 0-5.12-2.133333-5.12-5.12l-2.56-52.48c0-4.266667 2.986667-7.68 7.253333-8.106666 4.266667 0 7.68 2.986667 8.106667 7.253333 0.426667 0.426667 0.426667 0.426667 0.426667 0.853333m-1.28 67.413334c1.706667 1.706667 2.56 3.84 2.56 6.4s-0.853333 4.693333-2.56 6.826666c-1.706667 1.706667-4.266667 2.56-6.826667 2.56s-4.693333-0.853333-6.4-2.56-2.986667-3.84-2.986667-6.4 0.853333-4.693333 2.986667-6.4c1.706667-1.706667 3.84-2.56 6.4-2.56 2.986667-0.426667 5.12 0.426667 6.826667 2.133334" fill="#FFFFFF" /></svg>